<?xml version="1.0" encoding="UTF-8"?><svg id="a" xmlns="http://www.w3.org/2000/svg" height="16" width="16" viewBox="0 0 16 16"><defs><style>.b{fill:#fff;}</style></defs><path class="b" d="M8.01,4.8h0c-1.76,0-3.2,1.43-3.21,3.19,0,.85.33,1.66.94,2.27.61.61,1.41.94,2.26.94h0c1.76,0,3.2-1.44,3.2-3.2,0-.85-.33-1.66-.94-2.26-.6-.61-1.41-.94-2.26-.94ZM8,10.3h0c-.61,0-1.19-.24-1.63-.68-.44-.44-.68-1.02-.67-1.63,0-1.26,1.04-2.29,2.3-2.29h0c.61,0,1.19.24,1.62.67s.67,1.01.67,1.63c0,1.27-1.03,2.3-2.3,2.3Z"/><path class="b" d="M14.3,6.58l-1.18-.34c-.07-.21-.15-.42-.25-.62.2-.36.4-.73.6-1.09.2-.37.15-.74-.15-1.04l-.79-.79c-.33-.33-.68-.38-1.09-.15l-1.06.59c-.2-.1-.4-.18-.62-.26-.08-.27-.16-.54-.24-.82l-.11-.37c-.12-.42-.41-.64-.85-.64h-1.14c-.43,0-.72.22-.84.63l-.34,1.2c-.21.07-.42.16-.62.26l-1.09-.6c-.08-.04-.23-.13-.43-.13-.21,0-.44.09-.62.27l-.8.8c-.31.31-.36.67-.15,1.05l.18.32c.14.26.28.51.42.77-.1.21-.19.41-.26.62-.3.09-.6.17-.91.26l-.28.08c-.43.12-.65.41-.65.86v1.11c0,.46.21.74.65.86l.19.05c.33.1.66.19.99.29.07.22.16.43.25.62-.2.36-.4.73-.6,1.09-.2.37-.15.74.15,1.04l.77.77c.35.35.69.4,1.12.16l1.05-.58c.2.1.41.19.62.26.09.32.18.63.27.94l.07.25c.12.42.41.64.85.64h1.1c.47,0,.76-.21.89-.67l.33-1.16c.22-.07.43-.16.62-.26l1.08.59c.4.22.75.17,1.07-.15l.79-.79c.31-.31.36-.67.15-1.05l-.6-1.08c.1-.2.19-.41.26-.62l1.19-.34c.43-.12.65-.41.65-.86v-1.1c0-.47-.21-.75-.65-.88ZM12.75,8.93c-.29.08-.4.28-.45.44-.07.24-.17.48-.29.71-.11.2-.11.41,0,.62l.67,1.19-.79.79-1.19-.66c-.21-.12-.43-.12-.63,0-.21.11-.44.21-.69.29-.23.07-.38.22-.44.45l-.39,1.3h-1.08s-.07-.24-.07-.24c-.1-.35-.21-.7-.3-1.06-.07-.23-.22-.39-.45-.46-.24-.07-.47-.17-.7-.29-.08-.04-.18-.08-.31-.08-.1,0-.21.02-.32.09l-1.19.65s0-.01-.02-.02l-.76-.74c.22-.4.44-.8.66-1.2.15-.26.08-.49,0-.63-.12-.21-.21-.44-.29-.71-.07-.22-.22-.37-.44-.43-.37-.1-.75-.21-1.12-.32l-.19-.06v-1.1s.27-.08.27-.08c.34-.1.68-.2,1.02-.29.24-.06.4-.22.47-.46.07-.22.16-.46.29-.69.14-.26.07-.49,0-.63-.16-.29-.33-.59-.49-.88l-.18-.31.79-.79,1.19.66c.26.14.48.08.62,0,.23-.12.46-.22.71-.29.23-.07.38-.22.44-.45l.28-.98.07-.32h1.12s.11.36.11.36c.09.31.18.63.27.94.06.22.21.37.43.44.26.08.5.18.73.3.14.07.35.13.6,0l1.2-.65.78.76c-.22.41-.44.81-.67,1.21-.14.25-.08.47,0,.61.12.23.22.46.29.71.05.16.16.37.46.45l1.14.33.16.06v1.09s-1.3.38-1.3.38Z"/></svg>
