<svg width="30" height="30" viewBox="0 0 72 72" fill="none" xmlns="http://www.w3.org/2000/svg">
<g clip-path="url(#clip0_1553_1001)">
<rect width="72" height="72" fill="white"/>
<mask id="mask0_1553_1001" style="mask-type:luminance" maskUnits="userSpaceOnUse" x="0" y="0" width="72" height="72">
<rect width="72" height="72" fill="white"/>
</mask>
<g mask="url(#mask0_1553_1001)">
<rect width="108" height="108" transform="translate(-18 -18)" fill="white"/>
<path fill-rule="evenodd" clip-rule="evenodd" d="M50.1667 44C49.7064 44 49.3333 44.3731 49.3333 44.8334C49.3333 45.2936 49.7064 45.6667 50.1667 45.6667C50.6269 45.6667 51 45.2936 51 44.8334C51 44.3731 50.6269 44 50.1667 44ZM47.6667 44.8334C47.6667 43.4527 48.7859 42.3334 50.1667 42.3334C51.5474 42.3334 52.6667 43.4527 52.6667 44.8334C52.6667 46.2141 51.5474 47.3334 50.1667 47.3334C48.7859 47.3334 47.6667 46.2141 47.6667 44.8334Z" fill="black"/>
<path fill-rule="evenodd" clip-rule="evenodd" d="M51 46.5V55.4744C51 58.3062 48.7965 60.6667 46 60.6667C43.2035 60.6667 41 58.3062 41 55.4743L41.0001 51.1025L46.3095 53.2263L45.6905 54.7737L42.6667 53.5642L42.6667 55.4744C42.6667 57.4574 44.1941 59 46 59C47.8059 59 49.3333 57.4574 49.3333 55.4744V46.5H51Z" fill="black"/>
<path fill-rule="evenodd" clip-rule="evenodd" d="M36 39C33.2386 39 31 41.2386 31 44C31 46.7615 33.2386 49 36 49C38.7614 49 41 46.7615 41 44C41 41.2386 38.7614 39 36 39ZM29.3333 44C29.3333 40.3181 32.3181 37.3334 36 37.3334C39.6819 37.3334 42.6667 40.3181 42.6667 44C42.6667 47.6819 39.6819 50.6667 36 50.6667C32.3181 50.6667 29.3333 47.6819 29.3333 44Z" fill="black"/>
<path fill-rule="evenodd" clip-rule="evenodd" d="M33.7632 29H33.08L32.946 29.6699L32.372 32.54C31.7087 32.7498 31.0704 33.0156 30.4626 33.3316L28.0266 31.7077L27.4581 31.3287L26.9751 31.8118L23.8117 34.9751L23.3286 35.4582L23.7076 36.0267L25.3316 38.4627C25.0155 39.0704 24.7498 39.7087 24.54 40.372L21.6699 40.946L21 41.08V41.7632V46.2368V46.92L21.6699 47.054L24.54 47.628C24.7498 48.2913 25.0155 48.9295 25.3316 49.5373L23.7076 51.9733L23.3286 52.5418L23.8117 53.0248L26.9751 56.1882L27.4581 56.6713L28.0266 56.2923L30.4625 54.6683C31.0703 54.9844 31.7087 55.2502 32.372 55.46L32.946 58.3301L33.08 59H33.7632H36V57.3333H34.4463L33.9074 54.6385L33.8059 54.1314L33.3065 53.9972C32.4322 53.7622 31.6035 53.4156 30.8365 52.9732L30.3884 52.7147L29.9579 53.0017L27.6705 54.5266L25.4733 52.3294L26.9982 50.0419L27.2852 49.6115L27.0267 49.1633C26.5844 48.3964 26.2378 47.5678 26.0028 46.6935L25.8686 46.1941L25.3615 46.0926L22.6667 45.5537V42.4463L25.3615 41.9074L25.8686 41.8059L26.0028 41.3065C26.2378 40.4322 26.5844 39.6036 27.0268 38.8366L27.2852 38.3885L26.9983 37.958L25.4733 35.6706L27.6705 33.4734L29.9579 34.9983L30.3884 35.2853L30.8365 35.0268C31.6035 34.5844 32.4322 34.2378 33.3065 34.0028L33.8059 33.8686L33.9074 33.3615L34.4463 30.6667H37.5537L38.0926 33.3615L38.1941 33.8686L38.6935 34.0028C39.5678 34.2378 40.3965 34.5844 41.1635 35.0268L41.6116 35.2853L42.0421 34.9983L44.3295 33.4734L46.5267 35.6706L45.0018 37.9581L44.7148 38.3885L44.9733 38.8367C45.0045 38.8908 45.0352 38.9452 45.0655 39H46.931C46.8478 38.8184 46.7602 38.6393 46.6684 38.4627L48.2924 36.0267L48.6714 35.4582L48.1883 34.9752L45.0249 31.8118L44.5419 31.3287L43.9734 31.7077L41.5375 33.3317C40.9297 33.0156 40.2913 32.7498 39.628 32.54L39.054 29.6699L38.92 29H38.2368H33.7632Z" fill="black"/>
<rect x="-18" y="-18" width="108" height="40" fill="#EB0000"/>
<path fill-rule="evenodd" clip-rule="evenodd" d="M29.9901 17.4615H33.4863L28.7816 12.6731H34.6207V17.4615H37.3802V12.6731H43.2197L38.5137 17.4615H42.0102L48 11.2405L42.0102 5H38.5137L43.2197 9.80787H37.3802V5H34.6207V9.80787H28.7816L33.4863 5H29.9901L24 11.2405L29.9901 17.4615" fill="white"/>
</g>
</g>
<defs>
<clipPath id="clip0_1553_1001">
<rect width="72" height="72" fill="white"/>
</clipPath>
</defs>
</svg>
