<svg width="30" height="30" viewBox="0 0 80 80" fill="none" xmlns="http://www.w3.org/2000/svg">
<g filter="url(#filter0_d_1553_998)">
<mask id="mask0_1553_998" style="mask-type:luminance" maskUnits="userSpaceOnUse" x="4" y="2" width="72" height="72">
<rect x="4" y="2" width="72" height="72" fill="white"/>
</mask>
<g mask="url(#mask0_1553_998)">
<rect width="108" height="108" transform="translate(-14 -16)" fill="white"/>
<path fill-rule="evenodd" clip-rule="evenodd" d="M54.1667 46C53.7065 46 53.3334 46.3731 53.3334 46.8334C53.3334 47.2936 53.7065 47.6667 54.1667 47.6667C54.6269 47.6667 55 47.2936 55 46.8334C55 46.3731 54.6269 46 54.1667 46ZM51.6667 46.8334C51.6667 45.4527 52.786 44.3334 54.1667 44.3334C55.5474 44.3334 56.6667 45.4527 56.6667 46.8334C56.6667 48.2141 55.5474 49.3334 54.1667 49.3334C52.786 49.3334 51.6667 48.2141 51.6667 46.8334Z" fill="black"/>
<path fill-rule="evenodd" clip-rule="evenodd" d="M55 48.5V57.4744C55 60.3062 52.7965 62.6667 50 62.6667C47.2035 62.6667 45 60.3062 45 57.4743L45.0001 53.1025L50.3095 55.2263L49.6905 56.7737L46.6667 55.5642L46.6667 57.4744C46.6667 59.4574 48.1941 61 50 61C51.8059 61 53.3333 59.4574 53.3333 57.4744V48.5H55Z" fill="black"/>
<path fill-rule="evenodd" clip-rule="evenodd" d="M40 41C37.2386 41 35 43.2386 35 46C35 48.7615 37.2386 51 40 51C42.7614 51 45 48.7615 45 46C45 43.2386 42.7614 41 40 41ZM33.3333 46C33.3333 42.3181 36.3181 39.3334 40 39.3334C43.6819 39.3334 46.6666 42.3181 46.6666 46C46.6666 49.6819 43.6819 52.6667 40 52.6667C36.3181 52.6667 33.3333 49.6819 33.3333 46Z" fill="black"/>
<path fill-rule="evenodd" clip-rule="evenodd" d="M37.7632 31H37.08L36.946 31.6699L36.372 34.54C35.7087 34.7498 35.0704 35.0156 34.4626 35.3316L32.0266 33.7077L31.4581 33.3287L30.9751 33.8118L27.8117 36.9751L27.3286 37.4582L27.7076 38.0267L29.3316 40.4627C29.0155 41.0704 28.7498 41.7087 28.54 42.372L25.6699 42.946L25 43.08V43.7632V48.2368V48.92L25.6699 49.054L28.54 49.628C28.7498 50.2913 29.0155 50.9295 29.3316 51.5373L27.7076 53.9733L27.3286 54.5418L27.8117 55.0248L30.9751 58.1882L31.4581 58.6713L32.0266 58.2923L34.4625 56.6683C35.0703 56.9844 35.7087 57.2502 36.372 57.46L36.946 60.3301L37.08 61H37.7632H40V59.3333H38.4463L37.9074 56.6385L37.8059 56.1314L37.3065 55.9972C36.4322 55.7622 35.6035 55.4156 34.8365 54.9732L34.3884 54.7147L33.9579 55.0017L31.6705 56.5266L29.4733 54.3294L30.9982 52.0419L31.2852 51.6115L31.0267 51.1633C30.5844 50.3964 30.2378 49.5678 30.0028 48.6935L29.8686 48.1941L29.3615 48.0926L26.6667 47.5537V44.4463L29.3615 43.9074L29.8686 43.8059L30.0028 43.3065C30.2378 42.4322 30.5844 41.6036 31.0268 40.8366L31.2852 40.3885L30.9983 39.958L29.4733 37.6706L31.6705 35.4734L33.9579 36.9983L34.3884 37.2853L34.8365 37.0268C35.6035 36.5844 36.4322 36.2378 37.3065 36.0028L37.8059 35.8686L37.9074 35.3615L38.4463 32.6667H41.5537L42.0926 35.3615L42.1941 35.8686L42.6935 36.0028C43.5678 36.2378 44.3965 36.5844 45.1635 37.0268L45.6116 37.2853L46.0421 36.9983L48.3295 35.4734L50.5267 37.6706L49.0018 39.9581L48.7148 40.3885L48.9733 40.8367C49.0045 40.8908 49.0352 40.9452 49.0655 41H50.931C50.8478 40.8184 50.7602 40.6393 50.6684 40.4627L52.2924 38.0267L52.6714 37.4582L52.1883 36.9752L49.0249 33.8118L48.5419 33.3287L47.9734 33.7077L45.5375 35.3317C44.9297 35.0156 44.2913 34.7498 43.628 34.54L43.054 31.6699L42.92 31H42.2368H37.7632Z" fill="black"/>
<rect x="-14" y="-16" width="108" height="40" fill="#EB0000"/>
<path fill-rule="evenodd" clip-rule="evenodd" d="M33.9901 19.4615H37.4863L32.7816 14.6731H38.6207V19.4615H41.3802V14.6731H47.2197L42.5137 19.4615H46.0102L52 13.2405L46.0102 7H42.5137L47.2197 11.8079H41.3802V7H38.6207V11.8079H32.7816L37.4863 7H33.9901L28 13.2405L33.9901 19.4615" fill="white"/>
</g>
</g>
<defs>
<filter id="filter0_d_1553_998" x="0" y="0" width="80" height="80" filterUnits="userSpaceOnUse" color-interpolation-filters="sRGB">
<feFlood flood-opacity="0" result="BackgroundImageFix"/>
<feColorMatrix in="SourceAlpha" type="matrix" values="0 0 0 0 0 0 0 0 0 0 0 0 0 0 0 0 0 0 127 0" result="hardAlpha"/>
<feOffset dy="2"/>
<feGaussianBlur stdDeviation="2"/>
<feColorMatrix type="matrix" values="0 0 0 0 0 0 0 0 0 0 0 0 0 0 0 0 0 0 0.2 0"/>
<feBlend mode="normal" in2="BackgroundImageFix" result="effect1_dropShadow_1553_998"/>
<feBlend mode="normal" in="SourceGraphic" in2="effect1_dropShadow_1553_998" result="shape"/>
</filter>
</defs>
</svg>
